PathFileType	4	(x/y/z)	TRC_MarkerData\Passive\Passive_Pref0011.trc
DataRate	CameraRate	NumFrames	NumMarkers	Units	OrigDataRate	OrigDataStartFrame	OrigNumFrames
240	240	4	50	mm	240	1	309
Frame#	Time	R_AC			L_AC			HEAD			STERN			C7			L_IC			R_IC			L_ASIS			R_ASIS			L_GT			R_GT			L_PSIS			R_PSIS			SACRAL			L_LAT_KNEE			L_MED_KNEE			R_LAT_KNEE			R_MED_KNEE			L_LAT_ANK			L_MED_ANK			R_LAT_ANK			R_MED_ANK			L_THIGH_PROX_POST			L_THIGH_PROX_ANT			L_THIGH_DIST_ANT			L_THIGH_DIST_POST			R_THIGH_PROX_POST			R_THIGH_PROX_ANT			R_THIGH_DIST_ANT			R_THIGH_DIST_POST			L_SHANK_PROX_POST			L_SHANK_PROX_ANT			L_SHANK_DIST_ANT			L_SHANK_DIST_POST			R_SHANK_PROX_POST			R_SHANK_PROX_ANT			R_SHANK_DIST_ANT			R_SHANK_DIST_POST			L_HEEL_LAT			L_HEEL_SUP			L_HEEL_MED			R_HEEL_LAT			R_HEEL_SUP			R_HEEL_MED			L_1ST_MET			L_5TH_MET			L_TOE			R_1ST_MET			R_5TH_MET			R_TOE			
		X1	Y1	Z1	X2	Y2	Z2	X3	Y3	Z3	X4	Y4	Z4	X5	Y5	Z5	X6	Y6	Z6	X7	Y7	Z7	X8	Y8	Z8	X9	Y9	Z9	X10	Y10	Z10	X11	Y11	Z11	X12	Y12	Z12	X13	Y13	Z13	X14	Y14	Z14	X15	Y15	Z15	X16	Y16	Z16	X17	Y17	Z17	X18	Y18	Z18	X19	Y19	Z19	X20	Y20	Z20	X21	Y21	Z21	X22	Y22	Z22	X23	Y23	Z23	X24	Y24	Z24	X25	Y25	Z25	X26	Y26	Z26	X27	Y27	Z27	X28	Y28	Z28	X29	Y29	Z29	X30	Y30	Z30	X31	Y31	Z31	X32	Y32	Z32	X33	Y33	Z33	X34	Y34	Z34	X35	Y35	Z35	X36	Y36	Z36	X37	Y37	Z37	X38	Y38	Z38	X39	Y39	Z39	X40	Y40	Z40	X41	Y41	Z41	X42	Y42	Z42	X43	Y43	Z43	X44	Y44	Z44	X45	Y45	Z45	X46	Y46	Z46	X47	Y47	Z47	X48	Y48	Z48	X49	Y49	Z49	X50	Y50	Z50	

1	0	-897.77	1491.9	486	-942.01	1509.1	81.733	-884.01	1824.5	293.87	-841.8	1464.9	282.69	-976.29	1545.1	288.91	-934.95	1064.9	131.58	-942.93	1083.8	465.92	-873.96	1012.8	173.43	-881.1	1017.8	441.23	-948.74	925.39	115.95	-987.08	951.96	480.04	-1072.4	1021.8	237.4	-1078.2	1026	344.44	-1089.2	992.25	291.24	-749.04	576.8	168.48	-759.08	583.65	307.51	-1136.4	563.82	440.06	-1123.8	558.65	307.53	-601.79	134.27	175.37	-609.18	124.47	262.25	-1343.9	133.93	368.55	-1289.4	156.54	277.57	-880.13	752.22	135.55	-820.96	778.61	143.56	-787.43	715.93	160.71	-844.32	687.68	147.71	-1065	790.58	473.84	-1000.4	768.43	479.69	-1029.2	698.37	467.51	-1093.9	723.67	457.89	-732.42	474.59	183.96	-675.3	501.5	193.75	-655.38	455.96	200.67	-706.76	433.27	180.57	-1251.2	403.43	433.7	-1185.7	386.55	427.6	-1211.5	318.51	410.41	-1277.3	335.21	415.72	-614.97	40.297	173.38	-646.83	55.331	203.4	-626.25	33.203	239.47	-1421.7	112.98	332.74	-1407.5	143.12	301.9	-1396.6	113.99	272.22	-433.89	139.02	295.37	-441.12	136.25	183.56	-397.05	176.68	269.12	-1196.3	52.119	300.09	-1230	39.392	405.57	-1154.5	42.758	345.85
2	0.0041802	-892.73	1491.5	485.53	-937.17	1508.6	81.241	-879.24	1824	293.32	-836.85	1464.4	282.19	-971.4	1544.6	288.41	-929.61	1064.3	131.2	-937.91	1083.3	465.53	-868.6	1012.2	173.08	-875.94	1017.3	440.93	-943.44	924.6	115.69	-982.17	951.57	479.65	-1067	1021.1	236.94	-1073.1	1025.5	343.96	-1084	991.67	290.78	-745.34	575.45	168.61	-755.35	582.41	307.64	-1131.8	563.63	439.82	-1118.8	558.21	307.36	-599.51	133.14	175.71	-606.96	123.45	262.7	-1342.6	135.3	368.7	-1287.9	157.5	277.79	-875.73	751.01	135.52	-816.48	777.16	143.31	-783.22	714.37	160.57	-840.26	686.42	147.83	-1060.2	790.34	473.35	-995.62	768.15	479.38	-1024.4	698.1	467.23	-1089.1	723.46	457.41	-729.06	473.2	184.16	-671.86	499.92	193.91	-652.09	454.32	200.86	-703.57	431.79	180.79	-1247.5	404.09	433.58	-1182.3	386.65	427.39	-1208.7	318.81	410.38	-1274.3	336.11	415.63	-613.48	39.485	173.81	-644.94	54.785	203.9	-624.8	32.597	239.94	-1420.6	115.06	332.67	-1406.2	145.33	302.03	-1395.5	116.04	272.29	-431.64	136.61	295.63	-438.87	133.81	183.92	-394.55	174.01	269.38	-1196.1	52.101	300.09	-1229.8	39.496	405.64	-1154.4	42.728	345.85
3	0.0083604	-887.49	1491.1	485.02	-932.12	1508	80.723	-874.26	1823.5	292.74	-831.69	1463.9	281.67	-966.31	1544	287.88	-924.02	1063.8	130.79	-932.64	1082.8	465.11	-862.99	1011.6	172.71	-870.54	1016.9	440.61	-937.91	923.8	115.42	-977.02	951.18	479.25	-1061.5	1020.5	236.46	-1067.6	1024.9	343.45	-1078.6	991.09	290.3	-741.5	574.07	168.76	-751.49	581.13	307.76	-1126.8	563.42	439.58	-1113.4	557.74	307.2	-597.16	131.99	176.03	-604.74	122.41	263.14	-1341.3	136.74	368.85	-1286.2	158.51	278.03	-871.15	749.77	135.49	-811.81	775.65	143.07	-778.84	712.76	160.43	-836.02	685.13	147.94	-1055.2	790.1	472.84	-990.6	767.87	479.06	-1019.5	697.82	466.94	-1084.1	723.25	456.9	-725.59	471.78	184.35	-668.3	498.29	194.09	-648.69	452.63	201.07	-700.26	430.27	181.01	-1243.7	404.78	433.46	-1178.7	386.76	427.18	-1205.6	319.14	410.37	-1271.1	337.05	415.55	-611.99	38.663	174.22	-643.03	54.253	204.37	-623.35	32.001	240.39	-1419.5	117.28	332.61	-1404.8	147.66	302.18	-1394.3	118.2	272.37	-429.37	134.1	295.93	-436.59	131.26	184.29	-392.01	171.23	269.69	-1195.9	52.081	300.08	-1229.7	39.608	405.73	-1154.3	42.695	345.84
4	0.012541	-882.08	1490.7	484.5	-926.88	1507.4	80.181	-869.1	1823.1	292.14	-826.36	1463.5	281.13	-961.05	1543.5	287.33	-918.2	1063.2	130.36	-927.14	1082.3	464.67	-857.17	1011.1	172.34	-864.93	1016.4	440.27	-932.18	922.99	115.14	-971.67	950.78	478.83	-1055.7	1019.9	235.94	-1062	1024.4	342.92	-1072.9	990.5	289.79	-737.55	572.7	168.9	-747.56	579.84	307.89	-1121.7	563.2	439.34	-1107.8	557.25	307.04	-594.8	130.82	176.32	-602.52	121.36	263.56	-1339.8	138.25	369.03	-1284.5	159.58	278.3	-866.4	748.52	135.45	-807	774.11	142.84	-774.31	711.11	160.29	-831.64	683.81	148.05	-1049.9	789.86	472.32	-985.38	767.58	478.73	-1014.2	697.54	466.64	-1078.9	723.02	456.39	-722.02	470.36	184.55	-664.65	496.65	194.28	-645.21	450.92	201.29	-696.87	428.75	181.23	-1239.7	405.51	433.36	-1174.9	386.87	427	-1202.5	319.49	410.38	-1267.7	338.03	415.48	-610.52	37.845	174.6	-641.12	53.748	204.81	-621.93	31.427	240.81	-1418.2	119.62	332.56	-1403.3	150.11	302.34	-1393	120.48	272.45	-427.11	131.49	296.24	-434.3	128.64	184.69	-389.46	168.35	270.03	-1195.7	52.06	300.08	-1229.5	39.728	405.83	-1154.2	42.659	345.82
